<?xml version="1.0" encoding="UTF-8"?>
<svg id="Done" xmlns="http://www.w3.org/2000/svg" xmlns:xlink="http://www.w3.org/1999/xlink" viewBox="0 0 720 1080">
  <defs>
    <style>
      .cls-1, .cls-2, .cls-3, .cls-4, .cls-5, .cls-6, .cls-7, .cls-8, .cls-9, .cls-10, .cls-11, .cls-12, .cls-13, .cls-14, .cls-15, .cls-16, .cls-17, .cls-18, .cls-19, .cls-20, .cls-21 {
        stroke-miterlimit: 10;
      }

      .cls-1, .cls-2, .cls-7, .cls-8, .cls-9, .cls-21 {
        fill: none;
      }

      .cls-1, .cls-2, .cls-7, .cls-8, .cls-13, .cls-14, .cls-16, .cls-21 {
        stroke-linecap: round;
      }

      .cls-1, .cls-5 {
        stroke: #ebc1bb;
      }

      .cls-2, .cls-10 {
        stroke: #351703;
      }

      .cls-2, .cls-13 {
        stroke-width: .5px;
      }

      .cls-3, .cls-22 {
        fill: #000;
      }

      .cls-3, .cls-9 {
        stroke: #000;
      }

      .cls-23 {
        fill: url(#radial-gradient);
      }

      .cls-23, .cls-22, .cls-24, .cls-25, .cls-26, .cls-27 {
        stroke-width: 0px;
      }

      .cls-4 {
        fill: #603210;
        stroke: #603212;
      }

      .cls-5 {
        fill: #ebc1bb;
      }

      .cls-6 {
        fill: #ce7385;
        stroke: #ce7385;
      }

      .cls-7 {
        stroke: #ea8c9f;
      }

      .cls-8, .cls-14 {
        stroke: #5f0c12;
      }

      .cls-24 {
        fill: url(#radial-gradient-2);
      }

      .cls-9 {
        stroke-width: .25px;
      }

      .cls-10 {
        fill: #351703;
      }

      .cls-11 {
        fill: #df7d90;
        stroke: #df7d90;
      }

      .cls-12 {
        fill: #f8d2cb;
        stroke: #f8d2cb;
      }

      .cls-25, .cls-13, .cls-16 {
        fill: #531316;
      }

      .cls-13, .cls-16 {
        stroke: #531316;
      }

      .cls-26 {
        fill: #e7e6e4;
        opacity: .26;
      }

      .cls-14 {
        fill: #5f0c12;
      }

      .cls-15 {
        fill: #fff;
        stroke: #fff;
      }

      .cls-27 {
        fill: #6b1116;
      }

      .cls-17 {
        filter: url(#drop-shadow-1);
      }

      .cls-17, .cls-18, .cls-19, .cls-20 {
        fill: #3d1a03;
        stroke: #3d1a03;
      }

      .cls-18 {
        filter: url(#drop-shadow-4);
      }

      .cls-19 {
        filter: url(#drop-shadow-2);
      }

      .cls-20 {
        filter: url(#drop-shadow-3);
      }

      .cls-21 {
        stroke: #d17b8c;
      }
    </style>
    <filter id="drop-shadow-1" filterUnits="userSpaceOnUse">
      <feOffset dx="0" dy="4"/>
      <feGaussianBlur result="blur" stdDeviation="18"/>
      <feFlood flood-color="#000" flood-opacity=".7"/>
      <feComposite in2="blur" operator="in"/>
      <feComposite in="SourceGraphic"/>
    </filter>
    <radialGradient id="radial-gradient" cx="299.91" cy="322.6" fx="299.91" fy="322.6" r="7.17" gradientTransform="translate(-22.43 -24.17) scale(1.08)" gradientUnits="userSpaceOnUse">
      <stop offset="0" stop-color="#b86830"/>
      <stop offset=".23" stop-color="#b3652f"/>
      <stop offset=".5" stop-color="#a65f2d"/>
      <stop offset=".77" stop-color="#90542b"/>
      <stop offset="1" stop-color="#774828"/>
    </radialGradient>
    <radialGradient id="radial-gradient-2" cx="359.3" cy="321.26" fx="359.3" fy="321.26" r=".35" gradientTransform="translate(-7094.61 -5867.94) scale(20.75 19.27)" xlink:href="#radial-gradient"/>
    <filter id="drop-shadow-2" filterUnits="userSpaceOnUse">
      <feOffset dx="4" dy="4"/>
      <feGaussianBlur result="blur-2" stdDeviation="5"/>
      <feFlood flood-color="#000" flood-opacity=".25"/>
      <feComposite in2="blur-2" operator="in"/>
      <feComposite in="SourceGraphic"/>
    </filter>
    <filter id="drop-shadow-3" filterUnits="userSpaceOnUse">
      <feOffset dx="4" dy="4"/>
      <feGaussianBlur result="blur-3" stdDeviation="5"/>
      <feFlood flood-color="#000" flood-opacity=".25"/>
      <feComposite in2="blur-3" operator="in"/>
      <feComposite in="SourceGraphic"/>
    </filter>
    <filter id="drop-shadow-4" filterUnits="userSpaceOnUse">
      <feOffset dx="4" dy="4"/>
      <feGaussianBlur result="blur-4" stdDeviation="5"/>
      <feFlood flood-color="#000" flood-opacity=".25"/>
      <feComposite in2="blur-4" operator="in"/>
      <feComposite in="SourceGraphic"/>
    </filter>
  </defs>
  <g id="Layer_14" data-name="Layer 14">
    <path class="cls-17" d="M303.26,226.72c-12.06-3.38-22.39,8.83-28.62,19.69-6.99,12.18-13.46,24.65-19.4,37.37-6.04,12.95-11.61,26.3-20.31,37.63-10.99,14.31-27.59,27.11-27.62,45.16,0,5.3,1.52,10.57,1.04,15.85-1.22,13.42-14.21,22.05-25.21,29.84-11,7.78-22.36,20.05-18.4,32.93,2.58,8.39,11.37,14.9,10.58,23.64-.37,4.05-2.82,7.59-5.47,10.66-6.07,7.02-13.61,12.7-19.32,20.02s-12.02,33.82-8.3,42.33c5.57,12.76,21.33,21.12,38.22,25.86,68.16,19.13,123.81,14.98,194.59,13.69,22.69-.41,45.65-2.32,67.08-9.78,11.52-4.01,22.72-9.77,30.98-18.73s13.23-21.54,10.97-33.52c-2.51-13.33-13.23-23.96-15.88-37.27-3.8-19.09,9.85-38.18,7.1-57.45-2.99-20.9-23.63-34.29-33.29-53.06-12.16-23.61-6.07-54.08-20.44-76.42-5.01-7.79-12.17-13.95-17.92-21.21-7.75-9.79-12.83-21.46-20.5-31.31-9.16-11.77-22.17-20.75-36.73-23.96-14.57-3.21-30.61-.33-43.15,8.03Z"/>
    <path class="cls-10" d="M267.3,438.66c9.12-7.55,14.38-19.07,15.97-30.81s-.21-23.7-3.32-35.12c-.8-2.93-1.65-6.24-.11-8.87.85-1.44,2.31-2.43,3.84-3.1,4.21-1.82,9.03-1.49,13.57-.78,12.72,1.98,25.06,6.59,37.93,6.9,13.01.32,25.72-3.77,38.7-4.78.83-.06,1.69-.12,2.43-.5.72-.37,1.25-.99,1.77-1.61,2.42-2.85,4.83-5.71,7.25-8.56-1.2,26.08,1.64,52.34,8.4,77.55,1.23,4.6,2.6,9.23,2.83,13.99s-.83,9.78-3.95,13.39c-4.81,5.59-13.03,6.46-20.4,6.7-24.83.8-49.68-1.05-74.39-3.67-8.28-.88-16.79-1.92-24.12-5.87-2.06-1.11-4.05-2.49-5.34-4.44-2.13-3.23-1.86-7.86-1.04-10.42Z"/>
  </g>
  <g id="Layer_9" data-name="Layer 9">
    <path class="cls-12" d="M309.17,389.75c.57,6.4.36,13.1-2.47,18.87-.95,1.93-2.19,3.77-2.68,5.97.33,1.28,1.49,2.22,2.74,2.63s2.61.41,3.93.39c6.79-.08,13.59-.16,20.38-.25,5.39-.07,10.84-.12,16.09,1.1,1.85.43,3.66,1.02,5.53,1.34.44.08.91.13,1.31-.08.8-.42.77-1.55.63-2.43-.31-1.95-1.38-3.41-2.09-5.25-.61-1.59-2.24-9.18-2.34-11.45-.17-3.89.01-7.84,1.11-11.58-7.25.93-14.6,1.08-21.88.47-2.72-.23-5.44-.57-8.16-.47-3.77.14-7.46,1.11-11.21,1.53-.37.04-.94-.2-.88-.78Z"/>
    <path class="cls-5" d="M309.38,392.85c.06,5.67,3.66,11.83,7.72,15.79,1.14,1.11,2.34,2.16,3.74,2.93,1.45.79,3.06,1.25,4.67,1.65,3.44.86,7.16,1.49,10.45.15,2.24-.91,4.02-2.64,5.66-4.41,2-2.15,3.87-4.43,5.59-6.81,2.09-2.87,3.66-10.07,3.66-10.07,0,0-1.01-.41-1.28-.62-.49-.38-1.2-.24-1.8-.08-2.75.72-5.5,1.44-8.26,2.16-2.01.53-4.03,1.06-5.88,2-1.04.53-2.01,1.18-3.07,1.66-2.06.93-4.36,1.18-6.62,1.26-5.17.18-11.09-1.79-14.57-5.62Z"/>
  </g>
  <g id="Layer_2" data-name="Layer 2">
    <path class="cls-12" d="M335.66,257.33c-5.95-.59-11.95-.56-17.89.09-3.92.43-7.87,1.14-11.45,2.82-6.7,3.15-11.4,9.35-15.52,15.5-4.65,6.96-8.96,14.28-11.22,22.34-1.59,5.67-2.13,11.57-2.66,17.44-.63,6.94-1.26,13.89-1.88,20.83-.47,5.22-.94,10.49-.23,15.68,1.26,9.24,6.24,17.68,12.69,24.41s14.32,11.93,22.34,16.68c5.62,3.32,11.55,6.52,18.04,7.22,6.53.7,13.12-1.23,18.92-4.3s10.92-7.25,16.29-11.88c11.63-7.82,19.21-20.64,23.14-34.1,1-3.44,1.79-6.98,1.78-10.57-.02-3.41-.76-6.78-1.64-10.07-2.05-7.72-4.8-15.23-7.51-22.74-1.16-3.21-2.31-6.44-3.04-9.77-.58-2.64-.9-5.34-1.55-7.97-.78-3.15-2.05-6.18-3.84-8.9-2.97-4.51-6.49-8.66-10.45-12.33-1.51-1.4-3.09-2.74-4.8-3.89-6.01-4.04-13.26-5.88-19.52-6.5Z"/>
  </g>
  <g id="Layer_3" data-name="Layer 3">
    <path class="cls-5" d="M318.63,257.44c-12.08,6.51-20.87,20.77-20.24,34.48.1,2.09.39,4.23,1.38,6.08,1.09,2.03,2.93,3.53,4.62,5.09,3.37,3.11,6.34,6.65,8.81,10.52,2.19,3.44,3.99,7.9,1.98,11.45-1.47,2.61-4.68,3.86-7.68,3.74s-5.82-1.37-8.47-2.76c-1.44-.76-2.89-1.57-4.49-1.87s-3.42.02-4.5,1.23c-.43.48-.71,1.06-.98,1.64-4.17,9.01-4.94,19.45-2.73,29.13s7.31,18.6,14.07,25.87c3.8,4.09,12.62,12.93,12.62,12.93,0,0-5.57-3.15-7.27-4.31-3.21-2.18-8.9-3.62-15.32-10.05-10.86-10.86-10.72-11.25-14.47-23.22-1.88-6-1.57-14.19-1.39-18.87.2-5.1,1.5-17.06,2.42-23.81,2.26-16.61,3.67-30.64,14.93-43.06,5.12-5.65,10.36-10.01,17.52-12.62,3.39-1.24,6.47-1.69,9.18-1.59Z"/>
    <path class="cls-5" d="M339.41,257.84c14.04,8.81,20.7,26.56,16.24,42.52-.13.45-.27.91-.57,1.27-.6.71-1.64.79-2.52,1.1-1.86.65-3.13,2.46-3.67,4.36s-.44,3.91-.35,5.89c.19,4.09.61,8.67,3.74,11.3,3.79,3.19,9.43,1.92,14.36,2.42,1.92.19,4.02.84,4.95,2.53.42.76.54,1.64.66,2.5.81,5.89,1.63,11.82,1.5,17.77-.29,14.24-6.06,28.57-15.77,38.93,10.94-7.62,19.72-15.92,25.86-31.46,1.8-4.55,3.92-10.35,4.05-15.24.07-2.72.57-6.23.1-8.9-2.41-13.65-8.26-26.35-12.57-39.52-1.8-5.49-3.6-11.01-6.07-16.23-2-4.23-4.49-8.32-7.97-11.45-5.98-5.36-13.75-6.59-21.97-7.78Z"/>
    <path class="cls-1" d="M322.87,356.77c.75-.72,1.79-1.12,2.83-1.1,1.36.03,2.59.74,3.83,1.28s2.72.91,3.92.27"/>
    <path class="cls-1" d="M325.3,388.38c1.94-1.13,4.27-1.5,6.5-1.29s4.39.98,6.39,2.02"/>
    <path class="cls-1" d="M336.34,356.82c.52-.11,1.07-.05,1.55.17"/>
  </g>
  <g id="Layer_11" data-name="Layer 11">
    <path class="cls-11" d="M311.37,371.13s10.5-6.49,15.82-5.17c.88.22,1.72.6,2.61.74,2.02.33,4.05-.59,6.1-.58,4.64.02,12.21,4.6,12.21,4.6,0,0-6.04,2.82-9.55,3.93-2.51.79-5.1,1.26-7.7,1.63-1.47.21-2.95.39-4.43.31-1.87-.11-3.69-.64-5.47-1.22-4.09-1.33-9.58-4.25-9.58-4.25Z"/>
    <path class="cls-6" d="M311.96,372.21c2.62.84,5.2,1.37,9.54,2.3,3.26.7,6.63.99,9.96.74,3.97-.3,7.23-1.31,10.32-1.95,2.64-.55,6.14-1.6,6.14-1.6,0,0-1.94,2.71-2.45,3.37-3.64,4.7-10.56,8.86-14.97,8.45-2.94-.27-8.62.87-14.46-6.18-1.71-2.06-1.73-2.31-4.07-5.13Z"/>
    <path class="cls-21" d="M336.99,380.65l2.12-1.3c1.47-.91,2.99-1.85,3.99-3.27"/>
    <path class="cls-21" d="M324.09,381.56c1.55.97,3.41,1.43,5.24,1.31"/>
    <path class="cls-7" d="M314.82,369.86c1.74-1,3.5-2,5.39-2.69s3.94-1.05,5.92-.73"/>
  </g>
  <g id="Layer_7" data-name="Layer 7">
    <path class="cls-4" d="M362.36,301.35c-5.15.54-10.27,1.29-15.36,2.23.04-1.14.41-2.26,1.04-3.2,1.08-1.58,2.86-2.58,4.71-3.08s3.79-.55,5.7-.6c4.59-.12,9.18-.24,13.77-.36,3.75-.1,5.24,1.92,5.52,2.88.6,2.12,1.09,1.92-.3,1.91-.52,0-2.03.04-3.29-.05-.85-.06-2.43.03-3.28,0-3.21-.11-6.41.05-8.52.27Z"/>
    <path class="cls-4" d="M278.45,303.73c1.99-1.72,4.72-2.23,7.33-2.52,10.44-1.13,21,.44,31.26,2.68.05-1.37.1-2.74.15-4.11.02-.45.01-.96-.31-1.28-.23-.23-.57-.31-.89-.37-2.66-.54-5.33-1.07-7.99-1.61-2.48-.5-4.97-1-7.49-1.16-3.79-.24-7.58.28-11.31.93-2.31.4-4.66.87-6.75,1.94s-3.92,2.87-3.99,5.5Z"/>
  </g>
  <g id="Layer_6" data-name="Layer 6">
    <path class="cls-15" d="M282.06,321.83c2.48,2.5,5.21,4.77,8.12,6.77,1.65,1.13,3.37,2.17,5.26,2.83.6.21,1.22.38,1.84.53,4.63,1.12,9.45,1,14.19.59s1.42-3.72.91-4.75c-1.8-3.59-5.14-6.29-8.53-8.44-3.01-1.91-6.69-2.58-10.26-2.43s-7.05,1.07-10.46,2.13c-.41.13-.84.27-1.1.61-.54.71-.02,1.71.03,2.16Z"/>
    <path class="cls-15" d="M345.95,334.1l11.02.12c1.76.02,3.53.04,5.28-.15,6.03-.64,11.83-3.93,15.05-9.07.58-.92,1.09-1.97.98-3.05-.13-1.32-1.14-2.38-2.2-3.17-1.44-1.07-3.09-1.85-4.8-2.41-1.15-.38-2.34-.66-3.54-.78-3.91-.4-7.86.93-11.12,3.11s-5.91,5.17-8.24,8.34c-.64.87-1.26,1.76-1.71,2.74-.65,1.44-.9,3.06-.72,4.32Z"/>
  </g>
  <g id="Layer_10" data-name="Layer 10">
    <circle class="cls-23" cx="300.42" cy="323.11" r="7.72"/>
    <circle class="cls-24" cx="362.16" cy="323.11" r="7"/>
  </g>
  <g id="Layer_8" data-name="Layer 8">
    <path class="cls-26" d="M371.69,331.23c.34-1.13-.9-3.34-1.37-4.43-.62-1.42-1.27-2.83-1.95-4.23-.38-.78-.78-1.56-1.3-2.25-.75-1-1.77-1.82-2.92-2.34,1.86.31,3.75.1,5.64.04s3.84.04,5.51.89,3.81,1.14,3.59,2.98c-.06.52-.58,2.53-.83,2.99-1.41,2.51-4,4.72-6.35,6.35Z"/>
    <path class="cls-26" d="M280.32,320.14c.62.95,2.03,2.67,2.89,3.4,1.79,1.5,3.42,3.48,5.26,4.66.18-2.1.55-4,1.63-5.82s2.66-3.35,4.59-4.22c-4.68-.3-9.94-.21-14.37,1.98Z"/>
  </g>
  <g id="Layer_4" data-name="Layer 4">
    <path class="cls-9" d="M287.23,327.2c1.91,1.64,4.08,2.96,6.41,3.9"/>
    <path class="cls-9" d="M346.02,330.27c-.8,1.39-1,3.11-.44,4.51,1.19-.27,2.42-.35,3.63-.24"/>
    <path class="cls-9" d="M314.17,329.83c.13.56.18,1.14.05,1.69s-.45,1.08-.93,1.23c-.9.05-1.79.18-2.67.37"/>
    <path class="cls-9" d="M370.44,332c-1.68.83-3.42,1.55-5.19,2.16"/>
  </g>
  <g id="Layer_5" data-name="Layer 5">
    <path class="cls-3" d="M313.69,329.05c-3.44-3.44-7.87-7.85-12.29-9.89-3.32-1.53-6.47-1.4-9.93-.2-1.78.62-5.56,2.45-7.45,2.45-3.93,0-7.39-6.04-7.39-6.04,0,0,6.58.69,9.79-.02,2.35-.52,4.61-1.4,6.94-1.97s4.84-.81,7.12-.04c1.55.52,2.9,1.48,4.19,2.48,4.01,3.13,8.34,8.51,9.01,13.22Z"/>
    <g>
      <path class="cls-22" d="M347.32,328.09c1.35-3.07,3.35-7.17,5.08-9.03,2.92-3.14,5.36-4.18,9.41-5.19,2.2-.55,4.26-.82,6.3-.82,2.54,0,5.05.42,7.67,1.29,3.4,1.12,5.94,1.62,8.23,1.62,1.44,0,2.72-.2,3.89-.48-1.8,2.2-5.6,4.65-8.1,4.65-.28,0-.54-.03-.77-.1-1.05-.3-1.14-.35-1.75-.7-.17-.1-.38-.22-.66-.37-2.08-1.16-5.4-1.4-7.81-1.4-1.45,0-2.48.09-2.52.09h-.12c-1.3,0-7.93.14-11.05,2.93l-.27.24c-2.39,2.14-5.21,4.66-7.52,7.27Z"/>
      <path class="cls-22" d="M368.11,313.55c2.48,0,4.94.41,7.52,1.26,3.45,1.14,6.04,1.65,8.39,1.65.87,0,1.68-.07,2.45-.19-1.9,1.74-4.75,3.36-6.66,3.36-.24,0-.45-.03-.64-.08-.99-.28-1.05-.32-1.64-.66-.17-.1-.39-.22-.66-.38-2.18-1.21-5.58-1.46-8.05-1.46-1.32,0-2.29.07-2.51.09h-.13c-1.33,0-8.13.15-11.39,3.06l-.26.24c-1.71,1.53-3.65,3.26-5.46,5.08,1.16-2.39,2.51-4.83,3.71-6.13,2.83-3.05,5.21-4.06,9.16-5.05,2.16-.54,4.18-.8,6.18-.8M368.11,312.55c-2.06,0-4.18.27-6.42.83-4.21,1.06-6.7,2.16-9.65,5.34-2.95,3.18-6.54,12.45-6.57,12.52,2.52-3.64,6.69-7.33,9.99-10.28,3.01-2.69,9.59-2.81,10.72-2.81.11,0,.17,0,.17,0,0,0,1.03-.09,2.48-.09,2.26,0,5.55.22,7.57,1.34,1.28.71,1.11.72,2.51,1.12.28.08.59.12.91.12,3.13,0,7.97-3.5,9.25-5.96-1.71.47-3.26.79-5.04.79-2.12,0-4.58-.45-8.07-1.6-2.61-.86-5.17-1.31-7.83-1.31h0Z"/>
    </g>
  </g>
  <g id="Layer_13" data-name="Layer 13">
    <g>
      <path class="cls-27" d="M312.46,609.96c-4.36,0-8.32-.16-12.09-.49-11.8-1.02-24.29-3.92-38.2-8.87-9.75-3.47-20.55-8.24-26.67-17.32-5.54-8.22-6.39-18.58-7.21-28.6-.11-1.39-.23-2.78-.35-4.16-.56-6.18-1.45-12.43-2.3-18.48-1.5-10.67-3.06-21.7-2.91-32.62.16-11.56,2.74-32.9,18.27-45.97,6.79-5.71,15.28-9.1,23.49-12.37,1.81-.72,3.62-1.44,5.4-2.19,10.71-4.45,23.08-13.96,26.48-20.35,5.09-9.56,8.42-10.06,8.92-10.08-.36.5-.53,1.15-.48,1.87.09,1.12.69,2.25,1.54,2.87,2.04,1.48,4.53,1.69,6.91,1.69.52,0,1.05,0,1.57-.02.52,0,1.04-.02,1.56-.02.97,0,1.74.04,2.42.11.72.08,1.55.15,2.43.23,2.66.23,5.68.49,7.67,1.15,3.81,1.26,7.26,1.85,10.86,1.85,2.63,0,5.49-.3,9.29-.98.23-.04.48-.08.75-.11,1.37-.19,3.07-.43,3.73-1.59,1.04-1.83.07-3.53-.51-4.54-.07-.12-.15-.27-.22-.39.08,0,.16.02.25.03,4.21.68,10.03,4.4,11.52,8.38.34.91.46,1.89.58,2.92.07.61.14,1.24.27,1.86,1.09,5.42,6.2,9.93,13.66,12.07,2.32.67,4.73,1.12,7.06,1.57,3.68.7,7.48,1.43,10.91,2.97,9.13,4.11,15.93,14.46,18.18,27.69,1.14,6.71,1.24,13.66,1.33,20.39.06,4.75.13,9.67.56,14.49,1.01,11.19,3.97,22.01,8.8,32.16.98,2.07,2.06,4.13,3.1,6.13,2.04,3.92,4.16,7.98,5.64,12.2,1.81,5.14,3.34,12.7.36,19.52-2.22,5.08-6.58,8.83-10.13,11.53-24.99,19.01-57.47,22.5-91.35,24.63-7.47.47-14.21.86-21.1.86Z"/>
      <path class="cls-27" d="M304.39,409.25c-.08.35-.11.73-.08,1.13.1,1.26.78,2.53,1.75,3.23,2.15,1.57,4.74,1.78,7.21,1.78.52,0,1.05,0,1.58-.02.52,0,1.04-.02,1.55-.02.95,0,1.7.03,2.37.11.72.08,1.55.15,2.44.23,2.5.21,5.62.48,7.56,1.12,3.86,1.28,7.36,1.87,11.02,1.87,2.66,0,5.55-.3,9.37-.99.22-.04.47-.07.73-.11,1.48-.21,3.31-.47,4.09-1.84,1-1.75.37-3.41-.21-4.5,3.98.95,9.01,4.32,10.35,7.9.32.86.43,1.8.55,2.81.07.62.15,1.26.27,1.9,1.13,5.6,6.37,10.26,14.01,12.45,2.34.67,4.76,1.13,7.1,1.58,3.82.73,7.42,1.42,10.8,2.94,8.98,4.04,15.67,14.25,17.89,27.32,1.14,6.68,1.23,13.61,1.32,20.31.06,4.76.13,9.69.57,14.52,1.02,11.25,3.99,22.13,8.84,32.33.99,2.08,2.07,4.15,3.11,6.15,2.03,3.91,4.14,7.95,5.61,12.13,1.78,5.06,3.29,12.49.37,19.16-2.17,4.97-6.47,8.67-9.97,11.33-24.87,18.93-57.27,22.4-91.08,24.53-7.46.47-14.19.86-21.07.86-4.35,0-8.29-.16-12.05-.48-11.75-1.02-24.21-3.91-38.08-8.85-9.68-3.44-20.38-8.17-26.42-17.13-5.47-8.11-6.31-18.4-7.13-28.36-.11-1.4-.23-2.79-.35-4.17-.57-6.19-1.45-12.45-2.3-18.51-1.5-10.65-3.05-21.66-2.9-32.54.37-26.73,11.49-40.03,18.1-45.59,6.72-5.66,15.17-9.03,23.35-12.29,1.78-.71,3.62-1.44,5.41-2.19,11.94-4.97,23.67-14.83,26.73-20.57,3.31-6.21,6.04-8.76,7.58-9.54M305.31,407.97c-1.38,0-4.83,1.78-9.39,10.34-3.46,6.49-16.18,15.94-26.23,20.12s-20.69,7.63-29.02,14.64c-13.13,11.04-18.22,29.19-18.45,46.34-.23,17.15,3.65,34.07,5.21,51.15,1.04,11.38,1.26,23.52,7.65,33,6.09,9.03,16.65,13.86,26.92,17.52,12.39,4.41,25.22,7.77,38.32,8.9,4.04.35,8.08.49,12.13.49,7.05,0,14.1-.42,21.14-.86,32.06-2.01,66.06-5.28,91.62-24.73,4.18-3.18,8.18-6.91,10.28-11.73,2.72-6.22,1.91-13.48-.35-19.89s-5.84-12.24-8.76-18.38c-4.77-10.03-7.75-20.92-8.75-31.99-1.05-11.62.06-23.42-1.9-34.91-1.96-11.5-7.83-23.28-18.47-28.06-5.67-2.55-12.07-2.85-18.04-4.57s-12.08-5.59-13.31-11.69c-.32-1.62-.29-3.31-.87-4.85-1.57-4.18-7.49-7.98-11.91-8.7-.21-.03-.38-.05-.51-.05-1.65,0,2.02,2.47.47,5.2-.66,1.15-2.83,1.23-4.13,1.46-3.38.6-6.32.97-9.2.97-3.45,0-6.81-.53-10.71-1.82-2.73-.9-7.34-1.08-10.2-1.4-.81-.09-1.64-.12-2.48-.12-1.04,0-2.1.04-3.13.04-2.4,0-4.72-.21-6.62-1.59-1.25-.91-1.88-3.15-.79-4.24.26-.26.05-.59-.54-.59h0Z"/>
    </g>
    <g>
      <path class="cls-25" d="M385.69,571.79c.35-4.18,1.16-9.38,1.55-11.07.97-4.25,1.96-7.64,2.82-10.62,2.35-8.11,3.78-13.01,1.44-23.09-.39-1.7-.85-3.46-1.34-5.33-2.09-8-4.44-16.99-2.46-25l6.76,29.22c1.05,4.53,2.13,9.22,2.22,13.92.1,5.1-.98,10.21-3.13,14.78-.82,1.75-1.82,3.46-2.78,5.11-.96,1.66-1.96,3.37-2.8,5.14-1,2.13-1.71,4.56-2.29,6.95Z"/>
      <path class="cls-25" d="M387.75,499.06l1.15,4.97,5.08,21.97c1.04,4.5,2.12,9.16,2.21,13.82.1,5.02-.97,10.06-3.08,14.56-.81,1.73-1.8,3.43-2.76,5.07-.97,1.67-1.97,3.39-2.82,5.18-.26.54-.49,1.11-.72,1.68.33-2.41.69-4.52.91-5.48.97-4.24,1.95-7.62,2.81-10.6,2.38-8.19,3.81-13.14,1.45-23.35-.4-1.71-.86-3.47-1.34-5.34-1.88-7.19-3.96-15.18-2.9-22.48M387.76,494.69c-3.54,10.43,1.03,22.81,3.26,32.42,3.15,13.63-.64,17.67-4.26,33.49-.58,2.53-2.08,12.69-1.65,16.01.85-3.72,1.67-8.04,3.33-11.56,1.66-3.52,3.92-6.73,5.58-10.25,2.19-4.67,3.28-9.85,3.18-15-.09-4.74-1.17-9.41-2.24-14.03-2.4-10.36-4.8-20.72-7.19-31.09h0Z"/>
    </g>
    <path class="cls-16" d="M250.31,484.55c.52,8.48-1.26,15.3-2.49,23.32-.62,4.07-.83,8.21-1.63,12.26-.94,4.8-2.72,9.52-2.5,14.41.1,2.24.62,4.44,1.3,6.57,2.96,9.33,8.86,17.39,13.74,25.88s7.52,19.75,8.38,28.08c2.04-8.47-.59-19.06-5.13-27.33s-11.4-18.44-12.89-25.36c-1.76-8.2-3.19-12.6-1.83-19.73.61-3.19,1.53-7.8,2.21-11.13.71-3.49,1.89-8.34,2.61-11.83,1.15-5.64.04-9.5-1.76-15.13Z"/>
    <path class="cls-8" d="M243.98,469.39c4.83,9.27,9.81,19.31,8.44,29.67-.46,3.43-1.6,6.73-2.43,10.09-1.07,4.38-1.6,8.87-1.98,13.36-.52,6.07-.77,12.26.64,18.19,1.05,4.39,2.99,8.52,5.14,12.49,3.47,6.41,7.53,12.53,10.45,19.21s4.66,14.15,3.19,21.29c-.7,3.37-2.05,7.07-.33,10.05"/>
    <path class="cls-8" d="M398.5,482.8c-5.56,1.6-9.67,6.63-11.37,12.16-1.7,5.53-1.3,11.5-.2,17.18s2.87,11.21,3.9,16.9c1.05,5.78,1.85,11.62-.12,17.16-3.51,9.84-4.39,15.71-5.41,24.99-1.03,9.28,2.06,20.59,5.93,29.68"/>
    <path class="cls-8" d="M288.91,427.53c1.18,2.83,3.06,5.37,5.43,7.33.91.75,1.91,1.43,2.61,2.38"/>
    <path class="cls-8" d="M285.69,430.11c4.91,4.16,9.91,8.37,15.78,11.01,2.59,1.17,5.32,2.01,8.08,2.69,11.27,2.77,23.2,2.76,34.46-.01"/>
    <path class="cls-8" d="M299.82,430.22c.51,1.59,2.03,2.61,3.49,3.43,4.51,2.53,9.39,4.39,14.43,5.51"/>
    <path class="cls-14" d="M298.33,415.71c.21.99.9,1.56,1.77,2.08,1.78,1.06,3.61,2.1,5.63,2.56-2.58-.05-5.14-.64-7.48-1.73-.58-.27-1.34-.36-1.35-.44-.01-.1.32-.74.37-.83.31-.51.64-.97,1.05-1.64Z"/>
    <path class="cls-8" d="M367.33,428.45c-2.4,2.26-5.31,3.25-8.6,2.99"/>
    <path class="cls-8" d="M317.87,421.76c3.83.22,7.68.44,11.39,1.4,7.35,1.9,13.77,6.61,21.17,8.33"/>
    <path class="cls-8" d="M387.64,494.91c1.61-2.19,3.87-3.91,6.41-4.88"/>
    <path class="cls-8" d="M428.34,540c.21,4.37-1.14,7.88-3.76,11.17.78-3.05,1.22-6.2,1.06-9.34-.07-1.38-.25-2.75-.43-4.11-.29-2.16-.58-4.32-.86-6.48"/>
    <path class="cls-8" d="M239.19,555.87c-2.72-1.27-5.02-3.27-7.28-5.25-1.77-1.55-3.63-3.25-4.16-5.83-.34,3.17.85,6.34,2.65,8.97s4.19,4.78,6.56,6.91c.37.33.78.68,1.27.73"/>
    <path class="cls-13" d="M353.5,415.57s3.05-.03,4.3-1.14c.25-.22.51-.47.7-.67s.7-.49.52-.7c-.33-.4-1.11-.9-1.62-1.06-.64-.2-.78-.31-1.5-.59-1.08-.42-2.41-.8-3.09-.84-.3-.02.15.5.26.78.31.84.56,1.1.65,1.39.3.96.34.8.15,1.59s-.37,1.23-.37,1.23Z"/>
    <path class="cls-13" d="M305.73,408.6c-.65-.46-2.81.92-3.65,2.21-.09.13.04,1.47.35,1.79.86.88,1.86,1.63,2.95,2.22.53.29,1.11.55,1.71.57.46.02.92-.1,1.36-.21.31-.08.62-.16.93-.23.15-.04.33-.1.35-.26.03-.19-.17-.15-.35-.2-.68-.18-1.41-.46-2.02-.8-.47-.27-.86-.65-1.25-1.02-.48-.47-.63-1-.64-1.67-.02-.86.59-2.17.27-2.39Z"/>
  </g>
  <g id="Layer_15" data-name="Layer 15">
    <path class="cls-19" d="M325.3,255.71c-4.25,0-7.83,0-14.68,3.32-6.47,3.13-10.07,10.38-13.71,16.59-6.28,10.7-7.92,23.62-14.17,34.34-3.11,5.33-7.28,9.97-11.69,14.28-1.6,1.56-3.39,3.16-5.61,3.41-2.74.31-5.29-1.59-6.86-3.85-3.22-4.64-3.45-10.72-2.81-16.34,1.74-15.31,9.2-29.89,20.59-40.26,11.39-10.37,26.62-16.42,42.02-16.71,1.59-.03,7.86,3.94,6.92,5.22Z"/>
    <path class="cls-20" d="M341.87,256.91c8.69,1.51,16.02,5.48,18.33,14.11s4.36,17.2,8.4,25.04c1.92,3.72,4.44,7.11,6.31,10.86,6.9,13.78,4.5,31.04,12.37,44.3,2.02,3.4,4.95,6.6,8.82,7.43.29.06.59.11.87,0,.62-.23.75-1.03.85-1.69.51-3.48,2.75-6.44,3.97-9.74,1.9-5.14,1.22-10.93-.58-16.11s-4.66-9.91-7.19-14.77c-3.71-7.11-6.75-14.55-9.17-22.19-1.87-5.92-3.38-12.01-6.15-17.57-6.67-13.42-21.39-18.96-36.82-19.66Z"/>
    <path class="cls-18" d="M461.1,562.93c-8.03,6.3-14.08,9.15-24.87,14.43-.89.43-5.45,3.36-6.36,2.96-1.43-.62-1.2-7.1-1.45-8.64-.48-2.89-.56-5.84-.26-8.76.38-3.67,1.38-7.32,1.06-10.99-.72-8.47-7.96-14.67-12.43-21.9-3.95-6.38-5.8-13.79-7.56-21.08-1.43-5.94-2.84-11.96-2.69-18.06.12-4.84,1.22-9.6,1.66-14.42.81-8.9-12.04-26.89-10.99-38.47.29-3.15,7.2,5.16,9.33,2.82,1.58-1.75,4.29-2.12,6.55-1.45s4.15,2.22,5.82,3.88c9.44,9.34,13.77,22.67,16.15,35.74s3.18,26.48,7.12,39.17c3.26,10.52,8.6,20.27,14.54,29.54,3.02,4.72,6.36,10.27,4.39,15.23Z"/>
  </g>
  <g id="Layer_17" data-name="Layer 17">
    <path class="cls-2" d="M269.33,330.02c-6.22,14.91-18.3,26.9-23.84,42.08-4.6,12.6-4.36,26.52-8.59,39.24-4.85,14.57-15.51,26.87-28.56,34.96"/>
    <path class="cls-2" d="M303.3,226.48c1.73,1.57,2.95,3.61,4.08,5.66,2.83,5.12,5.28,10.45,7.33,15.94"/>
    <path class="cls-2" d="M302.93,229.22c-5.35,4.11-9.91,9.27-13.33,15.09-4.51,7.68-7,16.35-9.38,24.94-5.32,19.19-10.55,38.96-22.23,55.09-7.36,10.17-16.98,18.44-25.76,27.41s-16.99,19.09-20.44,31.16"/>
    <path class="cls-2" d="M276.63,364.54c-5.92,9.63-10.98,18.99-11.81,30.27-.31,4.16.12,8.34.06,12.51-.12,9.27-2.69,18.49-7.36,26.5-2.77,4.75-5.97,8.11-7.42,13.42"/>
    <path class="cls-2" d="M240.12,438.37c-14.16,13.49-28.97,28.05-33.65,47.05-2.55,10.36-1.84,21.2-1.8,31.87s-.73,21.75-5.85,31.11c-2.7,4.94-6.69,9.84-6.02,15.42"/>
    <path class="cls-2" d="M304.49,238.26c2.76,5.19-.84,11.33-4.13,16.19-8.45,12.47-15.77,25.7-21.85,39.48-2.84,6.43-5.44,13.2-5.32,20.22"/>
    <path class="cls-2" d="M316.22,253.47c3.53-6.63,11.58-10.01,19.08-9.53s14.45,4.21,20.35,8.86c8.8,6.94,15.83,16.12,20.23,26.44,3.77,8.83,5.62,18.37,9.4,27.2,6.8,15.87,19.52,28.67,26.19,44.6,6.06,14.48,6.73,30.62,6.06,46.29-.35,8.24-1.04,16.61.78,24.65,4.42,19.43,22.11,32.48,38.54,43.74"/>
    <path class="cls-2" d="M383.57,324.63c-1.31,4.67-.02,9.98,3.28,13.53,2.24,2.41,5.25,3.97,7.73,6.13,7.68,6.68,9.27,17.88,9.53,28.06.26,10.18-.14,20.98,5.04,29.75"/>
    <path class="cls-2" d="M392.91,374.25c-3.59,17.74,2.15,36.07,10.03,52.37s17.97,31.59,23.97,48.66c4.25,12.1,6.36,24.95,6.2,37.78-.13,10.65-1.81,21.29-.97,31.9"/>
    <path class="cls-2" d="M437.46,470.28c8.13,8.14,16.49,16.62,20.52,27.4,4.67,12.5,2.88,26.53-1.1,39.27-3.14,10.08-7.66,20.47-5.44,30.79"/>
    <path class="cls-2" d="M419.72,345.22c7.9,10.27,11.47,23.19,13.75,35.94,2.28,12.75,3.46,25.77,7.37,38.12,1.88,5.92,4.43,11.73,8.43,16.47s9.61,8.35,15.78,9"/>
    <path class="cls-2" d="M432.19,327.55c-.88-7.19-8.55-11.06-14.35-15.4-5.01-3.75-9.09-8.58-12.89-13.56-6.79-8.9-12.8-18.39-17.94-28.33-4.42-8.55-8.26-17.52-14.24-25.07-5.98-7.55-14.64-13.67-24.26-13.89"/>
    <path class="cls-2" d="M308.85,231.58c13.18-6.9,29.03-8.55,43.35-4.52"/>
    <path class="cls-2" d="M215.21,399.77c-8.67,8.07-14.39,18.97-17.51,30.39s-3.79,23.39-3.43,35.23c.24,7.84.9,15.79-.74,23.47-2.57,11.99-10.47,22.01-17.72,31.89s-14.32,20.81-14.79,33.06"/>
  </g>
</svg>